<?xml version="1.0" encoding="utf-8"?>
<!-- Generator: Adobe Illustrator 16.0.0, SVG Export Plug-In . SVG Version: 6.00 Build 0)  -->
<!DOCTYPE svg PUBLIC "-//W3C//DTD SVG 1.1//EN" "http://www.w3.org/Graphics/SVG/1.1/DTD/svg11.dtd">
<svg version="1.1" id="Layer_1" xmlns="http://www.w3.org/2000/svg" xmlns:xlink="http://www.w3.org/1999/xlink" x="0px" y="0px"
	 width="25.333px" height="19.333px" viewBox="0 0 25.333 19.333" enable-background="new 0 0 25.333 19.333" xml:space="preserve">
<path fill="#FB6060" d="M20.729,9.924l-5.051-5.104c-0.197-0.199-0.519-0.203-0.715-0.007c-0.002,0-0.004,0.002-0.008,0.007
	c-0.199,0.202-0.199,0.524,0,0.729l4.182,4.223H5.058c-0.284,0-0.517,0.23-0.517,0.518c0,0.285,0.229,0.517,0.517,0.517h14.079
	l-4.182,4.224c-0.199,0.205-0.199,0.53,0,0.729c0.195,0.198,0.518,0.2,0.719,0.005c0-0.004,0.002-0.004,0.004-0.006l5.053-5.104
	C20.93,10.454,20.93,10.127,20.729,9.924z"/>
</svg>
