<?xml version="1.0" encoding="utf-8"?>
<!-- Generator: Adobe Illustrator 16.0.0, SVG Export Plug-In . SVG Version: 6.00 Build 0)  -->
<!DOCTYPE svg PUBLIC "-//W3C//DTD SVG 1.1//EN" "http://www.w3.org/Graphics/SVG/1.1/DTD/svg11.dtd">
<svg version="1.1" id="Layer_1" xmlns="http://www.w3.org/2000/svg" xmlns:xlink="http://www.w3.org/1999/xlink" x="0px" y="0px"
	 width="333.5px" height="55px" viewBox="0 0 333.5 55" enable-background="new 0 0 333.5 55" xml:space="preserve">
<rect x="295.573" y="3.007" width="1.446" height="7.55"/>
<g>
	<defs>
		<rect id="SVGID_1_" x="9.614" y="3" width="322.195" height="41.054"/>
	</defs>
	<clipPath id="SVGID_2_">
		<use xlink:href="#SVGID_1_"  overflow="visible"/>
	</clipPath>
	<path clip-path="url(#SVGID_2_)" d="M303.542,8.389c0,0.713-0.261,1.273-0.777,1.68c-0.519,0.407-1.175,0.608-1.974,0.608
		c-0.592,0-1.102-0.075-1.529-0.227c-0.433-0.153-0.823-0.408-1.178-0.769l0.938-0.955c0.416,0.425,1.011,0.637,1.79,0.637
		c0.874,0,1.314-0.311,1.314-0.932c0-0.276-0.079-0.487-0.231-0.637c-0.14-0.125-0.357-0.215-0.655-0.264l-0.896-0.127
		c-0.633-0.093-1.112-0.301-1.438-0.628c-0.354-0.359-0.53-0.853-0.53-1.483c0-0.686,0.23-1.24,0.698-1.659
		c0.464-0.421,1.092-0.63,1.885-0.63c0.999,0,1.798,0.292,2.395,0.878l-0.916,0.924c-0.354-0.347-0.863-0.522-1.521-0.522
		c-0.368,0-0.65,0.092-0.848,0.272c-0.199,0.18-0.296,0.407-0.296,0.682c0,0.221,0.07,0.401,0.217,0.541
		c0.167,0.157,0.397,0.256,0.688,0.298l0.874,0.126c0.625,0.093,1.099,0.288,1.416,0.584C303.349,7.154,303.542,7.688,303.542,8.389
		"/>
	<path clip-path="url(#SVGID_2_)" d="M306.551,7.742h-1.542V6.17h1.542V7.742z M306.551,10.614h-1.542V9.045h1.542V10.614z"/>
	<path clip-path="url(#SVGID_2_)" d="M312.381,10.615h-4.508V9.374l2.771-3.277c0.256-0.311,0.386-0.615,0.386-0.91
		c0-0.285-0.077-0.512-0.233-0.685c-0.157-0.174-0.378-0.261-0.663-0.261c-0.256,0-0.472,0.077-0.646,0.229
		c-0.172,0.151-0.261,0.398-0.261,0.736h-1.354c0-0.671,0.213-1.206,0.64-1.606c0.429-0.399,0.969-0.599,1.62-0.599
		c0.667,0,1.209,0.198,1.624,0.594c0.419,0.395,0.624,0.929,0.624,1.602c0,0.337-0.057,0.623-0.175,0.856
		c-0.12,0.236-0.323,0.523-0.614,0.872l-2.073,2.448h2.862V10.615z"/>
	<path clip-path="url(#SVGID_2_)" d="M318.038,10.615h-4.511V9.374l2.771-3.277c0.257-0.311,0.385-0.615,0.385-0.91
		c0-0.285-0.074-0.512-0.232-0.685c-0.155-0.174-0.376-0.261-0.661-0.261c-0.258,0-0.474,0.077-0.646,0.229
		c-0.174,0.151-0.261,0.398-0.261,0.736h-1.354c0-0.671,0.216-1.206,0.643-1.606c0.427-0.399,0.967-0.599,1.619-0.599
		c0.665,0,1.207,0.198,1.624,0.594c0.415,0.395,0.625,0.929,0.625,1.602c0,0.337-0.06,0.623-0.177,0.856
		c-0.117,0.236-0.323,0.523-0.614,0.872l-2.073,2.448h2.864V10.615z"/>
	<path clip-path="url(#SVGID_2_)" d="M323.654,8.431c0,0.692-0.219,1.24-0.653,1.643c-0.434,0.404-0.965,0.605-1.6,0.605
		c-0.632,0-1.166-0.201-1.604-0.605c-0.437-0.403-0.655-0.95-0.655-1.643V5.25c0-0.693,0.219-1.242,0.655-1.645
		C320.235,3.202,320.77,3,321.401,3c0.635,0,1.166,0.202,1.6,0.605c0.435,0.403,0.653,0.951,0.653,1.645V8.431z M322.296,8.419
		v-3.15c0-0.318-0.08-0.568-0.243-0.752c-0.161-0.184-0.38-0.275-0.651-0.275s-0.488,0.093-0.655,0.281
		c-0.168,0.187-0.25,0.436-0.25,0.747v3.15c0,0.312,0.082,0.559,0.25,0.744c0.167,0.184,0.384,0.274,0.655,0.274
		s0.49-0.091,0.651-0.274C322.216,8.978,322.296,8.732,322.296,8.419"/>
	<path clip-path="url(#SVGID_2_)" d="M329.352,10.615h-4.514V9.374l2.772-3.277c0.257-0.311,0.384-0.615,0.384-0.91
		c0-0.285-0.076-0.512-0.232-0.685c-0.158-0.174-0.377-0.261-0.661-0.261c-0.259,0-0.473,0.077-0.646,0.229
		c-0.176,0.151-0.26,0.398-0.26,0.736h-1.357c0-0.671,0.216-1.206,0.643-1.606c0.428-0.399,0.967-0.599,1.62-0.599
		c0.667,0,1.206,0.198,1.626,0.594c0.416,0.395,0.625,0.929,0.625,1.602c0,0.337-0.062,0.623-0.178,0.856
		c-0.119,0.236-0.323,0.523-0.614,0.872l-2.074,2.448h2.866V10.615z"/>
	<polygon clip-path="url(#SVGID_2_)" points="302.526,17.574 301.232,17.574 301.232,34.376 302.526,34.376 303.828,34.376 
		303.828,17.574 	"/>
	<polygon clip-path="url(#SVGID_2_)" points="322.043,22.761 320.744,22.761 320.744,39.647 322.043,39.647 323.342,39.647 
		323.342,22.761 	"/>
	<path clip-path="url(#SVGID_2_)" d="M329.664,38.6c0,0.863-0.354,1.684-0.96,2.288c-0.609,0.611-1.378,0.956-2.237,0.956h-4.424
		h-9.77h-9.747h-4.396c-0.871,0-1.648-0.345-2.244-0.956c-0.614-0.604-0.969-1.425-0.969-2.288V18.636
		c0-0.884,0.354-1.766,0.969-2.297c0.596-0.607,1.373-0.952,2.244-0.952h4.396h9.747h9.77h4.424c0.859,0,1.628,0.345,2.237,0.952
		c0.606,0.531,0.96,1.413,0.96,2.297V38.6z M330.167,14.753c-0.949-0.958-2.253-1.576-3.7-1.576h-4.424h-9.77h-9.747h-4.396
		c-1.478,0-2.767,0.618-3.728,1.576c-1.028,0.979-1.625,2.367-1.625,3.883V38.6c0,1.48,0.597,2.805,1.625,3.861
		c0.961,0.966,2.25,1.593,3.728,1.593h4.396h9.747h9.77h4.424c1.447,0,2.751-0.627,3.7-1.593c1.044-1.057,1.643-2.381,1.643-3.861
		V18.636C331.81,17.12,331.211,15.731,330.167,14.753"/>
	<path clip-path="url(#SVGID_2_)" d="M324.388,18.015h-2.345h-9.75h-3.895c-0.867,0-1.723,0.443-2.329,1.056h-0.081
		c-0.61,0.608-0.961,1.484-0.961,2.469v4.913c0,0.89,0.351,1.77,0.961,2.473l0.081-0.091c0.606,0.704,1.462,1.053,2.329,1.053h1.477
		h2.418h3.889c0.168,0,0.427,0.095,0.606,0.264c0.078,0.159,0.263,0.357,0.263,0.631v4.914c0,0.269-0.185,0.438-0.263,0.617
		c-0.18,0.173-0.438,0.252-0.606,0.252h-3.889h-9.767h-2.325c-0.177,0-0.441-0.079-0.603-0.252
		c-0.177-0.179-0.264-0.349-0.264-0.617v-3.257h-2.513v3.257c0,0.971,0.35,1.841,0.962,2.458c0.682,0.623,1.467,0.977,2.417,0.977
		h2.325h9.767h3.889c0.869,0,1.726-0.354,2.424-0.977c0.59-0.697,0.945-1.487,0.945-2.458v-4.914c0-0.985-0.355-1.856-0.945-2.458
		c-0.698-0.632-1.555-0.981-2.424-0.981h-1.906h-1.982h-3.895c-0.17,0-0.418-0.183-0.605-0.26c-0.072-0.185-0.262-0.45-0.262-0.63
		V21.54c0-0.264,0.189-0.45,0.262-0.622c0.188-0.172,0.436-0.267,0.605-0.267h3.895h9.75h2.345c0.168,0,0.424,0.095,0.602,0.267
		c0.172,0.172,0.264,0.358,0.264,0.622v3.244h2.503V21.54c0-0.985-0.355-1.861-0.952-2.469
		C326.193,18.458,325.323,18.015,324.388,18.015"/>
	<rect x="238.94" y="3.063" clip-path="url(#SVGID_2_)" width="1.446" height="7.551"/>
	<path clip-path="url(#SVGID_2_)" d="M246.909,8.389c0,0.713-0.261,1.273-0.775,1.68c-0.521,0.407-1.179,0.608-1.977,0.608
		c-0.589,0-1.1-0.075-1.529-0.227c-0.432-0.153-0.824-0.408-1.178-0.769l0.938-0.955c0.416,0.425,1.015,0.637,1.791,0.637
		c0.873,0,1.313-0.311,1.313-0.932c0-0.276-0.079-0.487-0.23-0.637c-0.14-0.125-0.357-0.215-0.655-0.264l-0.896-0.127
		c-0.631-0.093-1.109-0.301-1.438-0.628c-0.354-0.359-0.529-0.853-0.529-1.483c0-0.686,0.231-1.24,0.696-1.659
		c0.464-0.421,1.093-0.63,1.886-0.63c1,0,1.797,0.292,2.395,0.878l-0.917,0.924c-0.354-0.347-0.86-0.522-1.521-0.522
		c-0.368,0-0.652,0.092-0.85,0.272c-0.198,0.18-0.295,0.407-0.295,0.682c0,0.221,0.071,0.401,0.218,0.541
		c0.166,0.157,0.396,0.256,0.687,0.298l0.874,0.126c0.626,0.093,1.099,0.288,1.417,0.584C246.716,7.154,246.909,7.688,246.909,8.389
		"/>
	<path clip-path="url(#SVGID_2_)" d="M249.918,7.742h-1.542V6.17h1.542V7.742z M249.918,10.614h-1.542V9.045h1.542V10.614z"/>
	<polygon clip-path="url(#SVGID_2_)" points="254.562,10.615 253.209,10.615 253.209,4.55 251.699,5.885 251.699,4.4 253.209,3.063 
		254.562,3.063 	"/>
	<path clip-path="url(#SVGID_2_)" d="M261.405,8.324c0,0.729-0.218,1.303-0.649,1.723c-0.435,0.422-0.988,0.63-1.663,0.63
		c-0.673,0-1.227-0.206-1.659-0.62c-0.437-0.414-0.654-0.983-0.654-1.711c0-0.481,0.209-1.154,0.626-2.015l1.562-3.267h1.479
		l-1.542,3.117c0.154-0.062,0.339-0.094,0.552-0.094c0.528,0,0.986,0.206,1.372,0.615C261.213,7.111,261.405,7.653,261.405,8.324
		 M260.052,8.336c0-0.333-0.088-0.601-0.265-0.802c-0.178-0.202-0.409-0.302-0.694-0.302c-0.283,0-0.515,0.099-0.692,0.298
		c-0.177,0.197-0.267,0.467-0.267,0.806c0,0.338,0.09,0.607,0.267,0.804c0.178,0.199,0.409,0.299,0.692,0.299
		c0.285,0,0.517-0.1,0.694-0.299C259.964,8.943,260.052,8.674,260.052,8.336"/>
	<path clip-path="url(#SVGID_2_)" d="M267.082,8.07c0,0.458-0.045,0.841-0.137,1.146c-0.09,0.303-0.263,0.585-0.518,0.849
		c-0.406,0.409-0.948,0.613-1.636,0.613c-0.71,0-1.261-0.2-1.655-0.603c-0.355-0.36-0.558-0.884-0.606-1.57h1.355
		c0.074,0.623,0.377,0.935,0.906,0.935c0.27,0,0.485-0.083,0.645-0.246c0.194-0.197,0.292-0.571,0.292-1.123
		c0-0.905-0.301-1.356-0.906-1.356c-0.466,0-0.765,0.203-0.896,0.614h-1.24V3.063h4.229v1.242h-2.999v1.623
		c0.262-0.254,0.636-0.383,1.113-0.383c0.591,0,1.053,0.171,1.387,0.51C266.86,6.507,267.082,7.18,267.082,8.07"/>
	<path clip-path="url(#SVGID_2_)" d="M272.748,5.334c0,0.495-0.203,1.166-0.615,2.015l-1.572,3.265h-1.468l1.541-3.118
		c-0.153,0.065-0.337,0.096-0.553,0.096c-0.528,0-0.986-0.205-1.375-0.617c-0.389-0.408-0.581-0.949-0.581-1.62
		c0-0.729,0.216-1.303,0.65-1.724C269.209,3.212,269.762,3,270.437,3c0.673,0,1.227,0.208,1.66,0.621
		C272.532,4.035,272.748,4.605,272.748,5.334 M271.128,6.152c0.178-0.199,0.267-0.468,0.267-0.808c0-0.339-0.089-0.607-0.267-0.806
		c-0.178-0.197-0.409-0.296-0.691-0.296c-0.286,0-0.517,0.099-0.694,0.296c-0.176,0.199-0.265,0.467-0.265,0.806
		c0,0.332,0.089,0.599,0.265,0.801c0.178,0.201,0.408,0.302,0.694,0.302C270.719,6.447,270.95,6.349,271.128,6.152"/>
	<polygon clip-path="url(#SVGID_2_)" points="245.896,17.574 244.599,17.574 244.599,34.376 245.896,34.376 247.196,34.376 
		247.196,17.574 	"/>
	<polygon clip-path="url(#SVGID_2_)" points="265.412,22.761 264.109,22.761 264.109,39.647 265.412,39.647 266.709,39.647 
		266.709,22.761 	"/>
	<path clip-path="url(#SVGID_2_)" d="M273.031,38.6c0,0.863-0.354,1.684-0.96,2.288c-0.609,0.611-1.379,0.956-2.236,0.956h-4.423
		h-9.771h-9.745h-4.397c-0.871,0-1.649-0.345-2.245-0.956c-0.611-0.604-0.968-1.425-0.968-2.288V18.636
		c0-0.884,0.356-1.766,0.968-2.297c0.596-0.607,1.374-0.952,2.245-0.952h4.397h9.745h9.771h4.423c0.857,0,1.627,0.345,2.236,0.952
		c0.605,0.531,0.96,1.413,0.96,2.297V38.6z M273.532,14.753c-0.946-0.958-2.252-1.576-3.697-1.576h-4.423h-9.771h-9.745h-4.397
		c-1.478,0-2.767,0.618-3.728,1.576c-1.029,0.979-1.625,2.367-1.625,3.883V38.6c0,1.48,0.596,2.805,1.625,3.861
		c0.961,0.966,2.25,1.593,3.728,1.593h4.397h9.745h9.771h4.423c1.445,0,2.751-0.627,3.697-1.593
		c1.043-1.057,1.645-2.381,1.645-3.861V18.636C275.177,17.12,274.575,15.731,273.532,14.753"/>
	<path clip-path="url(#SVGID_2_)" d="M267.755,18.015h-2.343h-9.752h-3.895c-0.868,0-1.722,0.443-2.328,1.056h-0.082
		c-0.611,0.608-0.961,1.484-0.961,2.469v4.913c0,0.89,0.35,1.77,0.961,2.473l0.082-0.091c0.606,0.704,1.46,1.053,2.328,1.053h1.477
		h2.418h3.889c0.168,0,0.427,0.095,0.605,0.264c0.08,0.159,0.263,0.357,0.263,0.631v4.914c0,0.269-0.183,0.438-0.263,0.617
		c-0.179,0.173-0.438,0.252-0.605,0.252h-3.889h-9.765h-2.327c-0.178,0-0.44-0.079-0.603-0.252
		c-0.174-0.179-0.264-0.349-0.264-0.617v-3.257h-2.513v3.257c0,0.971,0.351,1.841,0.962,2.458c0.684,0.623,1.465,0.977,2.417,0.977
		h2.327h9.765h3.889c0.868,0,1.725-0.354,2.424-0.977c0.591-0.697,0.944-1.487,0.944-2.458v-4.914c0-0.985-0.354-1.856-0.944-2.458
		c-0.699-0.632-1.556-0.981-2.424-0.981h-1.907h-1.981h-3.895c-0.17,0-0.418-0.183-0.605-0.26c-0.073-0.185-0.263-0.45-0.263-0.63
		V21.54c0-0.264,0.189-0.45,0.263-0.622c0.188-0.172,0.436-0.267,0.605-0.267h3.895h9.752h2.343c0.167,0,0.423,0.095,0.599,0.267
		c0.175,0.172,0.269,0.358,0.269,0.622v3.244h2.5V21.54c0-0.985-0.354-1.861-0.95-2.469
		C269.56,18.458,268.689,18.015,267.755,18.015"/>
	<rect x="182.307" y="3.063" clip-path="url(#SVGID_2_)" width="1.447" height="7.551"/>
	<path clip-path="url(#SVGID_2_)" d="M190.274,8.389c0,0.713-0.259,1.273-0.774,1.68c-0.521,0.407-1.178,0.608-1.976,0.608
		c-0.59,0-1.099-0.075-1.53-0.227c-0.432-0.153-0.823-0.408-1.178-0.769l0.938-0.955c0.417,0.425,1.015,0.637,1.79,0.637
		c0.875,0,1.314-0.311,1.314-0.932c0-0.276-0.078-0.487-0.229-0.637c-0.14-0.125-0.358-0.215-0.657-0.264l-0.896-0.127
		c-0.631-0.093-1.109-0.301-1.438-0.628c-0.354-0.359-0.529-0.853-0.529-1.483c0-0.686,0.232-1.24,0.698-1.659
		c0.463-0.421,1.093-0.63,1.884-0.63c1.001,0,1.8,0.292,2.396,0.878l-0.917,0.924c-0.354-0.347-0.86-0.522-1.521-0.522
		c-0.367,0-0.649,0.092-0.847,0.272c-0.196,0.18-0.297,0.407-0.297,0.682c0,0.221,0.072,0.401,0.218,0.541
		c0.166,0.157,0.396,0.256,0.687,0.298l0.874,0.126c0.626,0.093,1.1,0.288,1.416,0.584C190.085,7.154,190.274,7.688,190.274,8.389"
		/>
	<path clip-path="url(#SVGID_2_)" d="M193.284,7.742h-1.539V6.17h1.539V7.742z M193.284,10.614h-1.539V9.045h1.539V10.614z"/>
	<polygon clip-path="url(#SVGID_2_)" points="199.325,9.544 198.649,9.544 198.649,10.614 197.346,10.614 197.346,9.544 
		194.314,9.544 194.314,8.239 196.856,3.064 198.336,3.064 195.794,8.239 197.346,8.239 197.346,6.83 198.649,6.83 198.649,8.239 
		199.325,8.239 	"/>
	<path clip-path="url(#SVGID_2_)" d="M204.805,5.334c0,0.495-0.205,1.166-0.615,2.015l-1.571,3.265h-1.469l1.541-3.118
		c-0.153,0.065-0.337,0.096-0.553,0.096c-0.528,0-0.985-0.205-1.374-0.617c-0.39-0.408-0.585-0.949-0.585-1.62
		c0-0.729,0.218-1.303,0.652-1.724C201.265,3.212,201.817,3,202.492,3c0.673,0,1.227,0.208,1.659,0.621
		C204.587,4.035,204.805,4.605,204.805,5.334 M203.184,6.152c0.178-0.199,0.267-0.468,0.267-0.808c0-0.339-0.089-0.607-0.267-0.806
		c-0.178-0.197-0.408-0.296-0.691-0.296c-0.285,0-0.515,0.099-0.693,0.296c-0.177,0.199-0.265,0.467-0.265,0.806
		c0,0.332,0.088,0.599,0.265,0.801c0.179,0.201,0.408,0.302,0.693,0.302C202.775,6.447,203.006,6.349,203.184,6.152"/>
	<path clip-path="url(#SVGID_2_)" d="M210.458,5.334c0,0.495-0.203,1.166-0.613,2.015l-1.571,3.265h-1.47l1.543-3.118
		c-0.155,0.065-0.338,0.096-0.555,0.096c-0.526,0-0.986-0.205-1.376-0.617c-0.387-0.408-0.58-0.949-0.58-1.62
		c0-0.729,0.216-1.303,0.649-1.724C206.921,3.212,207.473,3,208.148,3c0.673,0,1.227,0.208,1.659,0.621
		C210.243,4.035,210.458,4.605,210.458,5.334 M208.84,6.152c0.178-0.199,0.266-0.468,0.266-0.808c0-0.339-0.088-0.607-0.266-0.806
		c-0.178-0.197-0.409-0.296-0.691-0.296c-0.285,0-0.517,0.099-0.695,0.296c-0.176,0.199-0.263,0.467-0.263,0.806
		c0,0.332,0.087,0.599,0.263,0.801c0.179,0.201,0.41,0.302,0.695,0.302C208.431,6.447,208.662,6.349,208.84,6.152"/>
	<path clip-path="url(#SVGID_2_)" d="M216.042,8.431c0,0.692-0.216,1.24-0.649,1.643c-0.438,0.404-0.97,0.605-1.601,0.605
		s-1.166-0.201-1.604-0.605c-0.437-0.403-0.654-0.95-0.654-1.643V5.25c0-0.693,0.218-1.242,0.654-1.645
		C212.626,3.202,213.161,3,213.792,3s1.163,0.202,1.601,0.605c0.434,0.403,0.649,0.951,0.649,1.645V8.431z M214.688,8.419v-3.15
		c0-0.318-0.081-0.568-0.243-0.752c-0.164-0.184-0.382-0.275-0.652-0.275s-0.487,0.093-0.655,0.281
		c-0.168,0.187-0.25,0.436-0.25,0.747v3.15c0,0.312,0.082,0.559,0.25,0.744c0.168,0.184,0.385,0.274,0.655,0.274
		s0.488-0.091,0.652-0.274C214.606,8.978,214.688,8.732,214.688,8.419"/>
	<polygon clip-path="url(#SVGID_2_)" points="189.262,17.574 187.967,17.574 187.967,34.376 189.262,34.376 190.564,34.376 
		190.564,17.574 	"/>
	<polygon clip-path="url(#SVGID_2_)" points="208.779,22.761 207.478,22.761 207.478,39.647 208.779,39.647 210.074,39.647 
		210.074,22.761 	"/>
	<path clip-path="url(#SVGID_2_)" d="M216.397,38.6c0,0.863-0.353,1.684-0.959,2.288c-0.61,0.611-1.38,0.956-2.237,0.956h-4.422
		h-9.771h-9.746h-4.396c-0.871,0-1.647-0.345-2.245-0.956c-0.611-0.604-0.967-1.425-0.967-2.288V18.636
		c0-0.884,0.355-1.766,0.967-2.297c0.598-0.607,1.374-0.952,2.245-0.952h4.396h9.746h9.771h4.422c0.857,0,1.627,0.345,2.237,0.952
		c0.606,0.531,0.959,1.413,0.959,2.297V38.6z M216.9,14.753c-0.948-0.958-2.251-1.576-3.699-1.576h-4.422h-9.771h-9.746h-4.396
		c-1.479,0-2.766,0.618-3.728,1.576c-1.028,0.979-1.624,2.367-1.624,3.883V38.6c0,1.48,0.596,2.805,1.624,3.861
		c0.962,0.966,2.249,1.593,3.728,1.593h4.396h9.746h9.771h4.422c1.448,0,2.751-0.627,3.699-1.593
		c1.044-1.057,1.646-2.381,1.646-3.861V18.636C218.546,17.12,217.944,15.731,216.9,14.753"/>
	<path clip-path="url(#SVGID_2_)" d="M211.123,18.015h-2.344h-9.751h-3.894c-0.868,0-1.723,0.443-2.329,1.056h-0.085
		c-0.609,0.608-0.96,1.484-0.96,2.469v4.913c0,0.89,0.351,1.77,0.96,2.473l0.085-0.091c0.606,0.704,1.461,1.053,2.329,1.053h1.475
		h2.419h3.886c0.172,0,0.429,0.095,0.606,0.264c0.082,0.159,0.264,0.357,0.264,0.631v4.914c0,0.269-0.182,0.438-0.264,0.617
		c-0.178,0.173-0.435,0.252-0.606,0.252h-3.886h-9.767h-2.327c-0.177,0-0.439-0.079-0.601-0.252
		c-0.176-0.179-0.265-0.349-0.265-0.617v-3.257h-2.512v3.257c0,0.971,0.35,1.841,0.962,2.458c0.682,0.623,1.464,0.977,2.415,0.977
		h2.327h9.767h3.886c0.87,0,1.727-0.354,2.426-0.977c0.593-0.697,0.946-1.487,0.946-2.458v-4.914c0-0.985-0.354-1.856-0.946-2.458
		c-0.699-0.632-1.556-0.981-2.426-0.981h-1.902h-1.983h-3.894c-0.172,0-0.419-0.183-0.609-0.26c-0.072-0.185-0.259-0.45-0.259-0.63
		V21.54c0-0.264,0.187-0.45,0.259-0.622c0.19-0.172,0.438-0.267,0.609-0.267h3.894h9.751h2.344c0.166,0,0.422,0.095,0.598,0.267
		c0.174,0.172,0.268,0.358,0.268,0.622v3.244h2.502V21.54c0-0.985-0.354-1.861-0.952-2.469
		C212.93,18.458,212.056,18.015,211.123,18.015"/>
	<rect x="125.676" y="3.063" clip-path="url(#SVGID_2_)" width="1.446" height="7.551"/>
	<path clip-path="url(#SVGID_2_)" d="M133.642,8.389c0,0.713-0.258,1.273-0.777,1.68c-0.516,0.407-1.174,0.608-1.973,0.608
		c-0.589,0-1.1-0.075-1.531-0.227c-0.431-0.153-0.823-0.408-1.176-0.769l0.938-0.955c0.415,0.425,1.014,0.637,1.79,0.637
		c0.876,0,1.313-0.311,1.313-0.932c0-0.276-0.076-0.487-0.229-0.637c-0.138-0.125-0.357-0.215-0.656-0.264l-0.896-0.127
		c-0.631-0.093-1.111-0.301-1.438-0.628c-0.354-0.359-0.531-0.853-0.531-1.483c0-0.686,0.232-1.24,0.699-1.659
		c0.464-0.421,1.093-0.63,1.885-0.63c1,0,1.799,0.292,2.395,0.878l-0.917,0.924c-0.354-0.347-0.86-0.522-1.52-0.522
		c-0.369,0-0.651,0.092-0.85,0.272c-0.197,0.18-0.297,0.407-0.297,0.682c0,0.221,0.073,0.401,0.219,0.541
		c0.167,0.157,0.396,0.256,0.688,0.298l0.875,0.126c0.625,0.093,1.097,0.288,1.416,0.584C133.451,7.154,133.642,7.688,133.642,8.389
		"/>
	<path clip-path="url(#SVGID_2_)" d="M136.652,7.742h-1.541V6.17h1.541V7.742z M136.652,10.614h-1.541V9.045h1.541V10.614z"/>
	<path clip-path="url(#SVGID_2_)" d="M142.505,8.07c0,0.458-0.045,0.841-0.136,1.146c-0.09,0.303-0.264,0.585-0.52,0.849
		c-0.403,0.409-0.948,0.613-1.634,0.613c-0.709,0-1.261-0.2-1.657-0.603c-0.354-0.36-0.556-0.884-0.604-1.57h1.354
		c0.077,0.623,0.377,0.935,0.908,0.935c0.269,0,0.485-0.083,0.644-0.246c0.195-0.197,0.292-0.571,0.292-1.123
		c0-0.905-0.302-1.356-0.907-1.356c-0.465,0-0.764,0.203-0.895,0.614h-1.24V3.063h4.229v1.242h-3v1.623
		c0.263-0.254,0.635-0.383,1.115-0.383c0.588,0,1.051,0.171,1.384,0.51C142.284,6.507,142.505,7.18,142.505,8.07"/>
	<path clip-path="url(#SVGID_2_)" d="M148.16,8.07c0,0.458-0.044,0.841-0.135,1.146c-0.089,0.303-0.263,0.585-0.521,0.849
		c-0.403,0.409-0.947,0.613-1.634,0.613c-0.708,0-1.261-0.2-1.657-0.603c-0.354-0.36-0.555-0.884-0.604-1.57h1.354
		c0.076,0.623,0.378,0.935,0.907,0.935c0.269,0,0.485-0.083,0.645-0.246c0.195-0.197,0.292-0.571,0.292-1.123
		c0-0.905-0.302-1.356-0.906-1.356c-0.466,0-0.763,0.203-0.896,0.614h-1.238V3.063h4.228v1.242h-3v1.623
		c0.262-0.254,0.635-0.383,1.115-0.383c0.59,0,1.052,0.171,1.385,0.51C147.938,6.507,148.16,7.18,148.16,8.07"/>
	<path clip-path="url(#SVGID_2_)" d="M153.754,8.431c0,0.692-0.218,1.24-0.651,1.643c-0.435,0.404-0.968,0.605-1.599,0.605
		c-0.632,0-1.168-0.201-1.604-0.605c-0.438-0.403-0.657-0.95-0.657-1.643V5.25c0-0.693,0.219-1.242,0.657-1.645
		C150.336,3.202,150.872,3,151.504,3c0.631,0,1.165,0.202,1.599,0.605c0.433,0.403,0.651,0.951,0.651,1.645V8.431z M152.401,8.419
		v-3.15c0-0.318-0.083-0.568-0.245-0.752c-0.164-0.184-0.38-0.275-0.651-0.275c-0.271,0-0.489,0.093-0.656,0.281
		c-0.166,0.187-0.249,0.436-0.249,0.747v3.15c0,0.312,0.083,0.559,0.249,0.744c0.167,0.184,0.385,0.274,0.656,0.274
		c0.271,0,0.488-0.091,0.651-0.274C152.318,8.978,152.401,8.732,152.401,8.419"/>
	<path clip-path="url(#SVGID_2_)" d="M159.483,5.334c0,0.495-0.206,1.166-0.615,2.015l-1.572,3.265h-1.469l1.541-3.118
		c-0.152,0.065-0.336,0.096-0.551,0.096c-0.53,0-0.987-0.205-1.375-0.617c-0.389-0.408-0.582-0.949-0.582-1.62
		c0-0.729,0.216-1.303,0.65-1.724C155.943,3.212,156.497,3,157.17,3s1.228,0.208,1.661,0.621
		C159.266,4.035,159.483,4.605,159.483,5.334 M157.862,6.152c0.178-0.199,0.266-0.468,0.266-0.808c0-0.339-0.088-0.607-0.266-0.806
		c-0.176-0.197-0.407-0.296-0.691-0.296c-0.285,0-0.516,0.099-0.693,0.296c-0.177,0.199-0.266,0.467-0.266,0.806
		c0,0.332,0.089,0.599,0.266,0.801c0.177,0.201,0.408,0.302,0.693,0.302C157.455,6.447,157.686,6.349,157.862,6.152"/>
	<polygon clip-path="url(#SVGID_2_)" points="132.628,17.574 131.334,17.574 131.334,34.376 132.628,34.376 133.931,34.376 
		133.931,17.574 	"/>
	<polygon clip-path="url(#SVGID_2_)" points="152.145,22.761 150.845,22.761 150.845,39.647 152.145,39.647 153.443,39.647 
		153.443,22.761 	"/>
	<path clip-path="url(#SVGID_2_)" d="M159.767,38.6c0,0.863-0.355,1.684-0.961,2.288c-0.611,0.611-1.379,0.956-2.238,0.956h-4.423
		h-9.769h-9.748h-4.396c-0.87,0-1.648-0.345-2.244-0.956c-0.612-0.604-0.967-1.425-0.967-2.288V18.636
		c0-0.884,0.355-1.766,0.967-2.297c0.595-0.607,1.374-0.952,2.244-0.952h4.396h9.748h9.769h4.423c0.858,0,1.627,0.345,2.238,0.952
		c0.606,0.531,0.961,1.413,0.961,2.297V38.6z M160.268,14.753c-0.947-0.958-2.252-1.576-3.699-1.576h-4.423h-9.769h-9.748h-4.396
		c-1.476,0-2.767,0.618-3.728,1.576c-1.027,0.979-1.624,2.367-1.624,3.883V38.6c0,1.48,0.597,2.805,1.624,3.861
		c0.961,0.966,2.252,1.593,3.728,1.593h4.396h9.748h9.769h4.423c1.447,0,2.752-0.627,3.699-1.593
		c1.043-1.057,1.644-2.381,1.644-3.861V18.636C161.912,17.12,161.311,15.731,160.268,14.753"/>
	<path clip-path="url(#SVGID_2_)" d="M154.489,18.015h-2.344h-9.75H138.5c-0.867,0-1.723,0.443-2.33,1.056h-0.082
		c-0.611,0.608-0.96,1.484-0.96,2.469v4.913c0,0.89,0.35,1.77,0.96,2.473l0.082-0.091c0.607,0.704,1.462,1.053,2.33,1.053h1.478
		h2.417h3.889c0.168,0,0.424,0.095,0.605,0.264c0.077,0.159,0.263,0.357,0.263,0.631v4.914c0,0.269-0.186,0.438-0.263,0.617
		c-0.181,0.173-0.437,0.252-0.605,0.252h-3.889h-9.767h-2.327c-0.176,0-0.442-0.079-0.601-0.252
		c-0.176-0.179-0.265-0.349-0.265-0.617v-3.257h-2.512v3.257c0,0.971,0.35,1.841,0.963,2.458c0.681,0.623,1.464,0.977,2.415,0.977
		h2.327h9.767h3.889c0.868,0,1.727-0.354,2.423-0.977c0.591-0.697,0.946-1.487,0.946-2.458v-4.914c0-0.985-0.355-1.856-0.946-2.458
		c-0.696-0.632-1.555-0.981-2.423-0.981h-1.906h-1.983H138.5c-0.168,0-0.417-0.183-0.607-0.26c-0.07-0.185-0.26-0.45-0.26-0.63
		V21.54c0-0.264,0.19-0.45,0.26-0.622c0.189-0.172,0.438-0.267,0.607-0.267h3.895h9.75h2.344c0.168,0,0.424,0.095,0.602,0.267
		c0.173,0.172,0.265,0.358,0.265,0.622v3.244h2.501V21.54c0-0.985-0.354-1.861-0.95-2.469
		C156.293,18.458,155.424,18.015,154.489,18.015"/>
	<rect x="71.87" y="3.063" clip-path="url(#SVGID_2_)" width="1.446" height="7.551"/>
	<path clip-path="url(#SVGID_2_)" d="M79.837,8.389c0,0.713-0.258,1.273-0.777,1.68c-0.517,0.407-1.175,0.608-1.973,0.608
		c-0.591,0-1.101-0.075-1.531-0.227c-0.431-0.153-0.823-0.408-1.176-0.769l0.938-0.955c0.415,0.425,1.013,0.637,1.79,0.637
		c0.875,0,1.313-0.311,1.313-0.932c0-0.276-0.076-0.487-0.229-0.637c-0.139-0.125-0.357-0.215-0.656-0.264l-0.896-0.127
		c-0.632-0.093-1.111-0.301-1.438-0.628c-0.354-0.359-0.531-0.853-0.531-1.483c0-0.686,0.233-1.24,0.699-1.659
		c0.463-0.421,1.092-0.63,1.885-0.63c0.999,0,1.799,0.292,2.395,0.878l-0.917,0.924c-0.354-0.347-0.861-0.522-1.52-0.522
		c-0.37,0-0.651,0.092-0.85,0.272c-0.198,0.18-0.297,0.407-0.297,0.682c0,0.221,0.073,0.401,0.219,0.541
		c0.167,0.157,0.396,0.256,0.688,0.298l0.875,0.126c0.626,0.093,1.096,0.288,1.417,0.584C79.646,7.154,79.837,7.688,79.837,8.389"/>
	<path clip-path="url(#SVGID_2_)" d="M82.846,7.742h-1.54V6.17h1.54V7.742z M82.846,10.614h-1.54V9.045h1.54V10.614z"/>
	<path clip-path="url(#SVGID_2_)" d="M88.711,8.431c0,0.721-0.224,1.275-0.672,1.664c-0.446,0.389-1.008,0.583-1.682,0.583
		c-0.659,0-1.217-0.185-1.671-0.556C84.229,9.75,84,9.193,83.992,8.452h1.355c0.007,0.325,0.105,0.57,0.296,0.736
		c0.193,0.166,0.429,0.251,0.714,0.251c0.299,0,0.541-0.093,0.724-0.276c0.185-0.185,0.276-0.443,0.276-0.774
		c0-0.318-0.092-0.572-0.276-0.759c-0.183-0.187-0.438-0.28-0.766-0.28h-0.199V6.15h0.199c0.312,0,0.547-0.086,0.703-0.259
		c0.157-0.174,0.234-0.401,0.234-0.685c0-0.304-0.086-0.541-0.26-0.711c-0.172-0.17-0.389-0.254-0.646-0.254
		c-0.256,0-0.47,0.083-0.64,0.245c-0.17,0.163-0.262,0.385-0.277,0.668h-1.354c0.015-0.658,0.237-1.18,0.667-1.569
		c0.432-0.389,0.966-0.582,1.604-0.582c0.66,0,1.202,0.199,1.626,0.602c0.421,0.403,0.634,0.924,0.634,1.561
		c0,0.721-0.285,1.236-0.853,1.549C88.392,7.059,88.711,7.631,88.711,8.431"/>
	<path clip-path="url(#SVGID_2_)" d="M94.294,8.431c0,0.692-0.219,1.24-0.651,1.643c-0.435,0.404-0.967,0.605-1.599,0.605
		c-0.633,0-1.167-0.201-1.604-0.605c-0.437-0.403-0.656-0.95-0.656-1.643V5.25c0-0.693,0.219-1.242,0.656-1.645
		C90.877,3.202,91.411,3,92.044,3c0.631,0,1.164,0.202,1.599,0.605c0.433,0.403,0.651,0.951,0.651,1.645V8.431z M92.94,8.419v-3.15
		c0-0.318-0.083-0.568-0.245-0.752c-0.164-0.184-0.38-0.275-0.651-0.275c-0.271,0-0.489,0.093-0.657,0.281
		c-0.165,0.187-0.249,0.436-0.249,0.747v3.15c0,0.312,0.083,0.559,0.249,0.744c0.167,0.184,0.386,0.274,0.657,0.274
		c0.271,0,0.487-0.091,0.651-0.274C92.857,8.978,92.94,8.732,92.94,8.419"/>
	<path clip-path="url(#SVGID_2_)" d="M100.021,8.431c0,0.721-0.224,1.275-0.672,1.664c-0.447,0.389-1.008,0.583-1.682,0.583
		c-0.659,0-1.217-0.185-1.671-0.556c-0.455-0.371-0.685-0.928-0.693-1.669h1.355c0.007,0.325,0.105,0.57,0.296,0.736
		c0.19,0.166,0.428,0.251,0.713,0.251c0.299,0,0.54-0.093,0.724-0.276c0.185-0.185,0.275-0.443,0.275-0.774
		c0-0.318-0.091-0.572-0.275-0.759c-0.184-0.187-0.439-0.28-0.766-0.28h-0.198V6.15h0.198c0.312,0,0.547-0.086,0.704-0.259
		c0.156-0.174,0.234-0.401,0.234-0.685c0-0.304-0.085-0.541-0.259-0.711c-0.175-0.17-0.39-0.254-0.647-0.254s-0.47,0.083-0.64,0.245
		c-0.17,0.163-0.262,0.385-0.277,0.668h-1.354c0.015-0.658,0.237-1.18,0.667-1.569c0.432-0.389,0.967-0.582,1.604-0.582
		c0.658,0,1.202,0.199,1.625,0.602c0.423,0.403,0.634,0.924,0.634,1.561c0,0.721-0.283,1.236-0.852,1.549
		C99.702,7.059,100.021,7.631,100.021,8.431"/>
	<polygon clip-path="url(#SVGID_2_)" points="75.996,17.574 74.702,17.574 74.702,34.376 75.996,34.376 77.297,34.376 
		77.297,17.574 	"/>
	<polygon clip-path="url(#SVGID_2_)" points="95.513,22.761 94.212,22.761 94.212,39.647 95.513,39.647 96.81,39.647 96.81,22.761 	
		"/>
	<path clip-path="url(#SVGID_2_)" d="M103.133,38.6c0,0.863-0.354,1.684-0.961,2.288c-0.608,0.611-1.378,0.956-2.236,0.956h-4.423
		h-9.771h-9.747H71.6c-0.872,0-1.649-0.345-2.245-0.956c-0.613-0.604-0.967-1.425-0.967-2.288V18.636
		c0-0.884,0.354-1.766,0.967-2.297c0.596-0.607,1.373-0.952,2.245-0.952h4.396h9.747h9.771h4.423c0.858,0,1.627,0.345,2.236,0.952
		c0.607,0.531,0.961,1.413,0.961,2.297V38.6z M103.635,14.753c-0.947-0.958-2.252-1.576-3.698-1.576h-4.423h-9.771h-9.747H71.6
		c-1.479,0-2.768,0.618-3.729,1.576c-1.026,0.979-1.624,2.367-1.624,3.883V38.6c0,1.48,0.597,2.805,1.624,3.861
		c0.961,0.966,2.251,1.593,3.729,1.593h4.396h9.747h9.771h4.423c1.446,0,2.751-0.627,3.698-1.593
		c1.043-1.057,1.645-2.381,1.645-3.861V18.636C105.279,17.12,104.678,15.731,103.635,14.753"/>
	<path clip-path="url(#SVGID_2_)" d="M97.857,18.015h-2.344h-9.752h-3.895c-0.867,0-1.721,0.443-2.327,1.056h-0.083
		c-0.611,0.608-0.961,1.484-0.961,2.469v4.913c0,0.89,0.35,1.77,0.961,2.473l0.083-0.091c0.606,0.704,1.46,1.053,2.327,1.053h1.479
		h2.417h3.89c0.168,0,0.424,0.095,0.605,0.264c0.078,0.159,0.262,0.357,0.262,0.631v4.914c0,0.269-0.184,0.438-0.262,0.617
		c-0.182,0.173-0.437,0.252-0.605,0.252h-3.89h-9.766h-2.327c-0.176,0-0.44-0.079-0.6-0.252c-0.176-0.179-0.265-0.349-0.265-0.617
		v-3.257h-2.512v3.257c0,0.971,0.349,1.841,0.962,2.458c0.682,0.623,1.464,0.977,2.414,0.977h2.327h9.766h3.89
		c0.867,0,1.726-0.354,2.424-0.977c0.59-0.697,0.944-1.487,0.944-2.458v-4.914c0-0.985-0.354-1.856-0.944-2.458
		c-0.698-0.632-1.557-0.981-2.424-0.981h-1.906h-1.984h-3.895c-0.167,0-0.417-0.183-0.606-0.26C81.189,26.898,81,26.633,81,26.453
		V21.54c0-0.264,0.19-0.45,0.261-0.622c0.189-0.172,0.438-0.267,0.606-0.267h3.895h9.752h2.344c0.167,0,0.422,0.095,0.6,0.267
		c0.172,0.172,0.265,0.358,0.265,0.622v3.244h2.5V21.54c0-0.985-0.354-1.861-0.95-2.469C99.661,18.458,98.791,18.015,97.857,18.015"
		/>
	<rect x="15.237" y="3.063" clip-path="url(#SVGID_2_)" width="1.446" height="7.551"/>
	<path clip-path="url(#SVGID_2_)" d="M23.205,8.389c0,0.713-0.259,1.273-0.778,1.68c-0.516,0.407-1.174,0.608-1.973,0.608
		c-0.589,0-1.099-0.075-1.531-0.227c-0.43-0.153-0.823-0.408-1.176-0.769l0.938-0.955c0.415,0.425,1.014,0.637,1.79,0.637
		c0.876,0,1.313-0.311,1.313-0.932c0-0.276-0.076-0.487-0.229-0.637c-0.138-0.125-0.357-0.215-0.656-0.264l-0.896-0.127
		c-0.631-0.093-1.111-0.301-1.438-0.628c-0.354-0.359-0.53-0.853-0.53-1.483c0-0.686,0.232-1.24,0.698-1.659
		c0.465-0.421,1.093-0.63,1.885-0.63c1,0,1.799,0.292,2.395,0.878L22.1,4.804c-0.354-0.347-0.861-0.522-1.521-0.522
		c-0.369,0-0.651,0.092-0.85,0.272c-0.197,0.18-0.296,0.407-0.296,0.682c0,0.221,0.073,0.401,0.218,0.541
		c0.167,0.157,0.396,0.256,0.688,0.298l0.875,0.126c0.625,0.093,1.097,0.288,1.416,0.584C23.013,7.154,23.205,7.688,23.205,8.389"/>
	<path clip-path="url(#SVGID_2_)" d="M26.213,7.742h-1.54V6.17h1.54V7.742z M26.213,10.614h-1.54V9.045h1.54V10.614z"/>
	<polygon clip-path="url(#SVGID_2_)" points="32.161,4.305 29.755,10.615 28.287,10.615 30.692,4.305 28.735,4.305 28.735,5.492 
		27.443,5.492 27.443,3.063 32.161,3.063 	"/>
	<polygon clip-path="url(#SVGID_2_)" points="36.515,10.615 35.16,10.615 35.16,4.55 33.649,5.885 33.649,4.4 35.16,3.063 
		36.515,3.063 	"/>
	<path clip-path="url(#SVGID_2_)" d="M43.317,8.431c0,0.692-0.219,1.24-0.651,1.643c-0.434,0.404-0.967,0.605-1.599,0.605
		c-0.632,0-1.167-0.201-1.604-0.605c-0.438-0.403-0.657-0.95-0.657-1.643V5.25c0-0.693,0.219-1.242,0.657-1.645
		C39.899,3.202,40.434,3,41.066,3c0.632,0,1.165,0.202,1.599,0.605c0.433,0.403,0.651,0.951,0.651,1.645V8.431z M41.963,8.419v-3.15
		c0-0.318-0.083-0.568-0.245-0.752c-0.164-0.184-0.38-0.275-0.652-0.275c-0.27,0-0.489,0.093-0.656,0.281
		c-0.166,0.187-0.249,0.436-0.249,0.747v3.15c0,0.312,0.083,0.559,0.249,0.744c0.167,0.184,0.386,0.274,0.656,0.274
		c0.272,0,0.488-0.091,0.652-0.274C41.88,8.978,41.963,8.732,41.963,8.419"/>
	<polygon clip-path="url(#SVGID_2_)" points="19.363,17.574 18.068,17.574 18.068,34.376 19.363,34.376 20.665,34.376 
		20.665,17.574 	"/>
	<polygon clip-path="url(#SVGID_2_)" points="38.88,22.761 37.579,22.761 37.579,39.647 38.88,39.647 40.177,39.647 40.177,22.761 	
		"/>
	<path clip-path="url(#SVGID_2_)" d="M46.5,38.6c0,0.863-0.355,1.684-0.961,2.288c-0.609,0.611-1.378,0.956-2.236,0.956H38.88h-9.77
		h-9.747h-4.397c-0.87,0-1.649-0.345-2.244-0.956c-0.613-0.604-0.967-1.425-0.967-2.288V18.636c0-0.884,0.354-1.766,0.967-2.297
		c0.595-0.607,1.374-0.952,2.244-0.952h4.397h9.747h9.77h4.423c0.858,0,1.627,0.345,2.236,0.952
		c0.606,0.531,0.961,1.413,0.961,2.297V38.6z M47.002,14.753c-0.948-0.958-2.253-1.576-3.7-1.576H38.88h-9.77h-9.747h-4.397
		c-1.477,0-2.767,0.618-3.728,1.576c-1.026,0.979-1.625,2.367-1.625,3.883V38.6c0,1.48,0.599,2.803,1.625,3.861
		c0.961,0.966,2.25,1.593,3.728,1.593h4.397h9.747h9.77h4.423c1.447,0,2.751-0.627,3.7-1.593c1.042-1.059,1.644-2.381,1.644-3.861
		V18.636C48.646,17.12,48.045,15.731,47.002,14.753"/>
	<path clip-path="url(#SVGID_2_)" d="M41.224,18.015H38.88h-9.751h-3.896c-0.867,0-1.722,0.443-2.328,1.056h-0.082
		c-0.61,0.608-0.96,1.484-0.96,2.469v4.913c0,0.89,0.35,1.77,0.96,2.473l0.082-0.091c0.606,0.704,1.461,1.053,2.328,1.053h1.478
		h2.417h3.888c0.169,0,0.425,0.095,0.605,0.264c0.079,0.159,0.263,0.357,0.263,0.631v4.914c0,0.269-0.185,0.438-0.263,0.617
		c-0.18,0.173-0.437,0.252-0.605,0.252h-3.888h-9.766h-2.327c-0.176,0-0.441-0.079-0.602-0.252
		c-0.176-0.179-0.264-0.349-0.264-0.617v-3.257h-2.513v3.257c0,0.971,0.349,1.841,0.964,2.458c0.681,0.623,1.463,0.977,2.415,0.977
		h2.327h9.766h3.888c0.869,0,1.727-0.354,2.425-0.977c0.59-0.697,0.945-1.487,0.945-2.458v-4.914c0-0.985-0.355-1.856-0.945-2.458
		c-0.698-0.632-1.556-0.981-2.425-0.981h-1.905h-1.983h-3.896c-0.169,0-0.416-0.183-0.606-0.26c-0.07-0.185-0.261-0.45-0.261-0.63
		V21.54c0-0.264,0.19-0.45,0.261-0.622c0.19-0.172,0.438-0.267,0.606-0.267h3.896h9.751h2.344c0.168,0,0.423,0.095,0.602,0.267
		c0.17,0.172,0.264,0.358,0.264,0.622v3.243h2.5V21.54c0-0.985-0.353-1.861-0.951-2.469C43.028,18.458,42.157,18.015,41.224,18.015"
		/>
</g>
</svg>
