<?xml version="1.0" encoding="utf-8"?>
<!-- Generator: Adobe Illustrator 16.0.0, SVG Export Plug-In . SVG Version: 6.00 Build 0)  -->
<!DOCTYPE svg PUBLIC "-//W3C//DTD SVG 1.1//EN" "http://www.w3.org/Graphics/SVG/1.1/DTD/svg11.dtd">
<svg version="1.1" id="Layer_1" xmlns="http://www.w3.org/2000/svg" xmlns:xlink="http://www.w3.org/1999/xlink" x="0px" y="0px"
	 width="199.5px" height="158.5px" viewBox="0 191.5 199.5 158.5" enable-background="new 0 191.5 199.5 158.5"
	 xml:space="preserve">
<desc>Created with Fabric.js 1.7.22</desc>
<g id="icon" transform="translate(-1.9444444444444287 -1.9444444444444287) scale(3.89 3.89)">
	<path d="M-63.483,6.147l45-27.845v-6.422c0-1.595-1.293-2.887-2.887-2.887h-84.226c-1.594,0-2.887,1.292-2.887,2.887v6.422
		L-63.483,6.147z"/>
	<path d="M-62.694,9.187c-0.011,0.007-0.023,0.008-0.033,0.015c-0.08,0.047-0.166,0.08-0.253,0.111
		c-0.04,0.014-0.077,0.035-0.118,0.046c-0.115,0.031-0.233,0.045-0.353,0.048c-0.011,0-0.021,0.004-0.031,0.004h-0.001h-0.001
		c-0.011,0-0.021-0.004-0.031-0.004c-0.119-0.003-0.238-0.018-0.353-0.048c-0.04-0.011-0.078-0.032-0.118-0.046
		c-0.087-0.031-0.172-0.064-0.253-0.111c-0.011-0.006-0.023-0.008-0.033-0.015l-44.211-27.357v45.289
		c0,1.594,1.293,2.887,2.887,2.887h84.226c1.594,0,2.887-1.293,2.887-2.887V-18.17L-62.694,9.187z"/>
</g>
<text transform="matrix(1 0 0 1 -6.5 497.5001)" fill="#E6E6E6" font-family="'ARSMaquettePro-Bold'" font-size="445">“</text>
</svg>
