<?xml version="1.0" encoding="utf-8"?>
<!-- Generator: Adobe Illustrator 16.0.0, SVG Export Plug-In . SVG Version: 6.00 Build 0)  -->
<!DOCTYPE svg PUBLIC "-//W3C//DTD SVG 1.1//EN" "http://www.w3.org/Graphics/SVG/1.1/DTD/svg11.dtd">
<svg version="1.1" id="Layer_1" xmlns="http://www.w3.org/2000/svg" xmlns:xlink="http://www.w3.org/1999/xlink" x="0px" y="0px"
	 width="28.833px" height="38.666px" viewBox="0 304.5 28.833 38.666" enable-background="new 0 304.5 28.833 38.666"
	 xml:space="preserve">
<desc>Created with Fabric.js 1.7.22</desc>
<g id="icon" transform="translate(-1.9444444444444287 -1.9444444444444287) scale(3.89 3.89)">
	<path fill="#1D1D1B" d="M6.408,87.655H1.861c-0.593,0-1.076-0.483-1.076-1.076v-2.87c0-0.593,0.483-1.075,1.076-1.075h4.547
		c0.593,0,1.076,0.483,1.076,1.075v2.87C7.484,87.173,7.001,87.655,6.408,87.655z M1.861,82.948c-0.42,0-0.761,0.341-0.761,0.761
		v2.87c0,0.42,0.341,0.761,0.761,0.761h4.547c0.42,0,0.761-0.342,0.761-0.761v-2.87c0-0.419-0.341-0.761-0.761-0.761H1.861z"/>
	<path fill="#1D1D1B" d="M1.85,83.955c0.727,0.708,1.454,1.416,2.18,2.124c0.135,0.132,0.343-0.075,0.208-0.208
		c-0.727-0.708-1.453-1.416-2.18-2.124C1.923,83.615,1.715,83.822,1.85,83.955L1.85,83.955z"/>
	<path fill="#1D1D1B" d="M4.238,86.079c0.727-0.708,1.454-1.416,2.18-2.124c0.136-0.132-0.072-0.34-0.207-0.208
		c-0.727,0.708-1.454,1.416-2.18,2.124C3.895,86.004,4.103,86.211,4.238,86.079L4.238,86.079z"/>
	<path fill="#1D1D1B" d="M6.664,86.693c-0.412-0.39-0.823-0.781-1.235-1.171c-0.117-0.111-0.294,0.066-0.177,0.176
		c0.411,0.39,0.823,0.781,1.235,1.171C6.604,86.98,6.781,86.804,6.664,86.693L6.664,86.693z"/>
	<path fill="#1D1D1B" d="M1.621,86.684c-0.122,0.115,0.063,0.299,0.184,0.184l0,0c0.38-0.361,0.744-0.706,1.287-1.22
		c0.122-0.116-0.063-0.3-0.184-0.184"/>
</g>
</svg>
