<?xml version="1.0" encoding="utf-8"?>
<!-- Generator: Adobe Illustrator 16.0.0, SVG Export Plug-In . SVG Version: 6.00 Build 0)  -->
<!DOCTYPE svg PUBLIC "-//W3C//DTD SVG 1.1//EN" "http://www.w3.org/Graphics/SVG/1.1/DTD/svg11.dtd">
<svg version="1.1" id="Layer_1" xmlns="http://www.w3.org/2000/svg" xmlns:xlink="http://www.w3.org/1999/xlink" x="0px" y="0px"
	 width="118.167px" height="34px" viewBox="0 72.167 118.167 34" enable-background="new 0 72.167 118.167 34" xml:space="preserve"
	>
<g id="icon" transform="translate(-1.9444444444444287 -1.9444444444444287) scale(3.89 3.89)">
	<path fill="#3C5A99" d="M0.5,28.263h9.34v-9.34H0.5V28.263L0.5,28.263z"/>
	<path fill="#3C5A99" d="M9.753,28.263h9.34v-9.34H9.582v9.34H9.753z"/>
	<path fill="#3C5A99" d="M18.833,28.392h9.34v-9.34h-9.34V28.392L18.833,28.392z"/>
	<path fill="#3C5A99" d="M21.599,28.392h9.34v-9.34h-9.34V28.392L21.599,28.392z"/>
	<path fill="#FFFFFF" d="M7.637,26.55v-2.693h0.904l0.136-1.049H7.637v-0.67c0-0.304,0.084-0.511,0.52-0.511l0.556,0v-0.939
		c-0.096-0.013-0.426-0.041-0.81-0.041c-0.801,0-1.35,0.489-1.35,1.387v0.774H5.647v1.049h0.82l0.086,2.693H7.637L7.637,26.55z"/>
</g>
<text transform="matrix(1 0 0 1 43.8906 92.5264)" fill="#FFFFFF" stroke="#FFFFFF" stroke-width="0.3364" font-family="'ARSMaquettePro-Regular'" font-size="10.4286">Facebook</text>
</svg>
