<?xml version="1.0" encoding="utf-8"?>
<!-- Generator: Adobe Illustrator 16.0.0, SVG Export Plug-In . SVG Version: 6.00 Build 0)  -->
<!DOCTYPE svg PUBLIC "-//W3C//DTD SVG 1.1//EN" "http://www.w3.org/Graphics/SVG/1.1/DTD/svg11.dtd">
<svg version="1.1" xmlns="http://www.w3.org/2000/svg" xmlns:xlink="http://www.w3.org/1999/xlink" x="0px" y="0px"
	 width="118.167px" height="34px" viewBox="0 72.167 118.167 34" enable-background="new 0 72.167 118.167 34" xml:space="preserve"
	>
<g id="Layer_4">
	<rect x="-1" y="69" fill="#006699" width="134.5" height="41"/>
</g>
<g id="Layer_1">
	<g id="icon" transform="translate(-1.9444444444444287 -1.9444444444444287) scale(3.89 3.89)">
		<path fill="#FFFFFF" d="M59.553,42.674v-2.693h0.904l0.136-1.049h-1.04v-0.67c0-0.304,0.085-0.511,0.52-0.511l0.556,0v-0.939
			c-0.096-0.013-0.426-0.041-0.81-0.041c-0.801,0-1.35,0.489-1.35,1.387v0.774h-0.906v1.049h0.82l0.086,2.693H59.553L59.553,42.674z
			"/>
	</g>
	
		<text transform="matrix(1 0 0 1 43.8906 92.0264)" fill="#FFFFFF" stroke="#FFFFFF" stroke-width="0.3364" font-family="'ARSMaquettePro-Regular'" font-size="10.4286">LinkedIn</text>
	<g id="Dark_Blue">
		<rect x="116.487" y="-72.514" fill="#1DA1F2" width="117.013" height="117.014"/>
	</g>
	<g id="Logo__x2014__FIXED">
		<path fill="#FFFFFF" d="M138.692-24.333c8.339,0,12.902-6.916,12.902-12.902c0-0.195,0-0.389-0.009-0.584
			c0.884-0.636,1.653-1.441,2.264-2.352c-0.814,0.362-1.689,0.601-2.608,0.716c0.937-0.557,1.654-1.45,1.998-2.511
			c-0.875,0.521-1.848,0.893-2.883,1.097c-0.832-0.885-2.007-1.433-3.307-1.433c-2.503,0-4.537,2.034-4.537,4.536
			c0,0.354,0.044,0.699,0.116,1.035c-3.767-0.185-7.11-1.999-9.347-4.74c-0.389,0.672-0.61,1.45-0.61,2.282
			c0,1.574,0.804,2.962,2.016,3.776c-0.743-0.027-1.442-0.23-2.051-0.566c0,0.018,0,0.036,0,0.062c0,2.193,1.564,4.032,3.634,4.448
			c-0.38,0.105-0.778,0.159-1.194,0.159c-0.292,0-0.575-0.026-0.849-0.079c0.575,1.804,2.255,3.112,4.236,3.148
			c-1.556,1.22-3.511,1.945-5.633,1.945c-0.363,0-0.725-0.018-1.079-0.062C133.749-25.085,136.136-24.333,138.692-24.333"/>
	</g>
	<g id="icon_1_" transform="translate(-1.9444444444444287 -1.9444444444444287) scale(3.89 3.89)">
		<path fill="#3C5A99" d="M0.885,60.269h9.34v-9.34h-9.34V60.269L0.885,60.269z"/>
		<path fill="#3C5A99" d="M10.139,60.269h9.34v-9.34H9.968v9.34H10.139z"/>
		<path fill="#3C5A99" d="M19.219,60.397h9.34v-9.34h-9.34V60.397L19.219,60.397z"/>
		<path fill="#3C5A99" d="M21.984,60.397h9.34v-9.34h-9.34V60.397L21.984,60.397z"/>
		<path fill="#FFFFFF" d="M8.023,58.555v-2.693h0.904l0.136-1.05H8.023v-0.67c0-0.304,0.084-0.511,0.52-0.511h0.556v-0.939
			c-0.096-0.013-0.426-0.041-0.81-0.041c-0.801,0-1.35,0.489-1.35,1.388v0.774H6.033v1.049h0.82l0.086,2.693H8.023L8.023,58.555z"/>
	</g>
	
		<text transform="matrix(1 0 0 1 162.3906 -28.4735)" fill="#FFFFFF" stroke="#FFFFFF" stroke-width="0.3364" font-family="'ARSMaquettePro-Regular'" font-size="10.4286">Twitter</text>
	
		<text transform="matrix(1 0 0 1 43.3906 217.5265)" fill="#FFFFFF" stroke="#FFFFFF" stroke-width="0.3364" font-family="'ARSMaquettePro-Regular'" font-size="10.4286">Twitter</text>
	<g id="Logo__x2014__FIXED_1_">
		<path fill="#FFFFFF" d="M196.691,168.166c8.34,0,12.902-6.915,12.902-12.901c0-0.195,0-0.39-0.008-0.585
			c0.884-0.636,1.652-1.44,2.264-2.352c-0.814,0.363-1.689,0.602-2.609,0.717c0.938-0.558,1.654-1.45,1.998-2.512
			c-0.875,0.521-1.848,0.893-2.883,1.097c-0.831-0.885-2.006-1.433-3.307-1.433c-2.503,0-4.537,2.033-4.537,4.536
			c0,0.354,0.045,0.698,0.115,1.034c-3.767-0.185-7.109-1.998-9.347-4.739c-0.39,0.672-0.61,1.45-0.61,2.282
			c0,1.574,0.805,2.962,2.016,3.775c-0.742-0.027-1.441-0.23-2.051-0.566c0,0.019,0,0.036,0,0.062c0,2.193,1.564,4.032,3.635,4.448
			c-0.381,0.105-0.779,0.159-1.194,0.159c-0.292,0-0.575-0.027-0.849-0.08c0.574,1.805,2.255,3.113,4.235,3.148
			c-1.556,1.221-3.511,1.945-5.634,1.945c-0.362,0-0.725-0.018-1.078-0.062C191.748,167.414,194.137,168.166,196.691,168.166"/>
	</g>
	<g id="icon_2_" transform="translate(-1.9444444444444287 -1.9444444444444287) scale(3.89 3.89)">
		<path fill="#006699" d="M-17.857,38.883L7.845,21.365"/>
	</g>
	<g id="icon_3_" transform="translate(-1.9444444444444287 -1.9444444444444287) scale(3.89 3.89)">
		<path fill="#006699" d="M2.954,19.085c0-0.311,0.26-0.563,0.581-0.563h6.703c0.321,0,0.581,0.252,0.581,0.563v6.738
			c0,0.311-0.26,0.563-0.581,0.563H3.535c-0.321,0-0.581-0.252-0.581-0.563V19.085z"/>
		<path fill="#FFFFFF" d="M4.229,21.858c0.333,0,0.541-0.22,0.541-0.494c-0.006-0.28-0.207-0.494-0.534-0.494
			c-0.327,0-0.541,0.213-0.541,0.494c0,0.274,0.207,0.494,0.528,0.494H4.229L4.229,21.858z"/>
		<path fill="#FFFFFF" d="M4.707,25.105v-2.858H3.751v2.858H4.707z"/>
		<path fill="#FFFFFF" d="M5.236,25.105h0.956V23.51c0-0.085,0.006-0.171,0.032-0.232c0.069-0.171,0.226-0.347,0.49-0.347
			c0.346,0,0.484,0.262,0.484,0.646v1.529h0.956v-1.639c0-0.878-0.472-1.286-1.1-1.286c-0.516,0-0.742,0.286-0.868,0.482h0.006
			v-0.415H5.236C5.248,22.516,5.236,25.105,5.236,25.105L5.236,25.105z"/>
	</g>
</g>
<g id="Layer_3">
</g>
</svg>
