<?xml version="1.0" encoding="utf-8"?>
<!-- Generator: Adobe Illustrator 24.3.0, SVG Export Plug-In . SVG Version: 6.00 Build 0)  -->
<svg version="1.1" id="Layer_1" xmlns="http://www.w3.org/2000/svg" xmlns:xlink="http://www.w3.org/1999/xlink" x="0px" y="0px"
	 viewBox="0 0 31.6 7.7" style="enable-background:new 0 0 31.6 7.7;" xml:space="preserve">
<style type="text/css">
	.st0{fill:#231F20;}
	.st1{fill:#F79643;}
	.st2{fill:#1D8E45;}
	.st3{fill:#FFFFFF;}
</style>
<g>
	<polygon class="st0" points="0,5.8 0,2.7 31.6,2.7 31.6,5.8 15.8,7.7 	"/>
	<polygon class="st1" points="11.1,6.9 0.3,5.6 0.3,3 11.1,3 	"/>
	<polygon class="st2" points="31.4,5.6 20.5,6.9 20.5,3 31.4,3 	"/>
	<polygon class="st3" points="21,6.8 15.8,7.4 10.6,6.8 10.6,3 21,3 	"/>
	<path class="st3" d="M1.1,0h0.2l0.5,1.1L2.3,0h0.2v1.7H2.2V0.6h0L1.9,1.5H1.7L1.3,0.6h0v1.1H1.1V0z"/>
	<path class="st3" d="M4.9,1.3H4.3L4.2,1.7H3.9L4.5,0h0.2l0.6,1.7H5.1L4.9,1.3z M4.9,1.1L4.6,0.3h0L4.4,1.1H4.9z"/>
	<path class="st3" d="M6.7,0h0.6c0.2,0,0.4,0.1,0.5,0.3c0,0.1,0.1,0.1,0.1,0.2c0,0.1,0,0.2,0,0.4c0,0.2,0,0.3,0,0.4c0,0,0,0.1,0,0.1
		c0,0,0,0.1,0,0.1c0,0.1-0.1,0.1-0.2,0.2C7.5,1.7,7.4,1.7,7.3,1.7H6.7V0z M7,1.5h0.3c0.1,0,0.3,0,0.3-0.1c0,0,0-0.1,0.1-0.1
		c0-0.1,0-0.2,0-0.3c0-0.1,0-0.3,0-0.3c0-0.1,0-0.1-0.1-0.2C7.5,0.3,7.4,0.2,7.3,0.2H7V1.5z"/>
	<path class="st3" d="M9.4,0h1.1v0.2H9.7v0.5h0.7V1H9.7v0.5h0.8v0.2H9.4V0z"/>
	<path class="st3" d="M13.7,0H14v1.7h-0.3V0z"/>
	<path class="st3" d="M15.5,0h0.2l0.8,1.2h0V0h0.3v1.7h-0.2l-0.8-1.2h0v1.2h-0.3V0z"/>
	<path class="st3" d="M20.1,0h0.3v1.7h-0.3V0z"/>
	<path class="st3" d="M22,0h0.2L23,1.2h0V0h0.3v1.7H23l-0.8-1.2h0v1.2H22V0z"/>
	<path class="st3" d="M24.8,0h0.6c0.2,0,0.4,0.1,0.5,0.3C26,0.4,26,0.4,26,0.5c0,0.1,0,0.2,0,0.4c0,0.2,0,0.3,0,0.4c0,0,0,0.1,0,0.1
		c0,0,0,0.1,0,0.1c0,0.1-0.1,0.1-0.2,0.2c-0.1,0.1-0.2,0.1-0.3,0.1h-0.6V0z M25.1,1.5h0.3c0.1,0,0.3,0,0.3-0.1c0,0,0-0.1,0.1-0.1
		c0-0.1,0-0.2,0-0.3c0-0.1,0-0.3,0-0.3c0-0.1,0-0.1-0.1-0.2c-0.1-0.1-0.2-0.1-0.3-0.1h-0.3V1.5z"/>
	<path class="st3" d="M27.5,0h0.3v1.7h-0.3V0z"/>
	<path class="st3" d="M30.2,1.3h-0.6l-0.1,0.4h-0.3L29.8,0H30l0.6,1.7h-0.3L30.2,1.3z M30.1,1.1l-0.2-0.7h0l-0.2,0.7H30.1z"/>
</g>
</svg>
