<?xml version="1.0" encoding="utf-8"?>
<!-- Generator: Adobe Illustrator 16.0.0, SVG Export Plug-In . SVG Version: 6.00 Build 0)  -->
<!DOCTYPE svg PUBLIC "-//W3C//DTD SVG 1.1//EN" "http://www.w3.org/Graphics/SVG/1.1/DTD/svg11.dtd">
<svg version="1.1" xmlns="http://www.w3.org/2000/svg" xmlns:xlink="http://www.w3.org/1999/xlink" x="0px" y="0px"
	 width="118.167px" height="34px" viewBox="0 72.167 118.167 34" enable-background="new 0 72.167 118.167 34" xml:space="preserve"
	>
<g id="Layer_1">
	<g id="icon" transform="translate(-1.9444444444444287 -1.9444444444444287) scale(3.89 3.89)">
		<path fill="#3C5A99" d="M0.5,28.263h9.34v-9.34H0.5V28.263L0.5,28.263z"/>
		<path fill="#3C5A99" d="M9.753,28.263h9.34v-9.34H9.582v9.34H9.753z"/>
		<path fill="#3C5A99" d="M18.833,28.392h9.34v-9.34h-9.34V28.392L18.833,28.392z"/>
		<path fill="#3C5A99" d="M21.599,28.392h9.34v-9.34h-9.34V28.392L21.599,28.392z"/>
		<path fill="#FFFFFF" d="M39.116,27.893V25.2h0.904l0.136-1.049h-1.039v-0.67c0-0.304,0.084-0.511,0.52-0.511l0.556,0V22.03
			c-0.096-0.013-0.426-0.041-0.81-0.041c-0.801,0-1.35,0.489-1.35,1.387v0.774h-0.906V25.2h0.82l0.086,2.693H39.116L39.116,27.893z"
			/>
	</g>
	
		<text transform="matrix(1 0 0 1 43.8906 92.5264)" fill="#FFFFFF" stroke="#FFFFFF" stroke-width="0.3364" font-family="'ARSMaquettePro-Regular'" font-size="10.4286">Twitter</text>
	<g id="Dark_Blue">
		<rect x="0.487" y="48.486" fill="#1DA1F2" width="117.013" height="117.014"/>
	</g>
	<g id="Logo__x2014__FIXED">
		<path fill="#FFFFFF" d="M22.692,96.667c8.339,0,12.902-6.916,12.902-12.902c0-0.195,0-0.389-0.009-0.584
			c0.884-0.636,1.653-1.441,2.264-2.352c-0.814,0.362-1.689,0.601-2.608,0.716c0.937-0.557,1.654-1.45,1.998-2.511
			c-0.875,0.521-1.848,0.893-2.883,1.097c-0.832-0.885-2.007-1.433-3.307-1.433c-2.503,0-4.537,2.034-4.537,4.536
			c0,0.354,0.044,0.699,0.116,1.035c-3.767-0.185-7.11-1.999-9.347-4.74c-0.389,0.672-0.61,1.45-0.61,2.282
			c0,1.574,0.804,2.962,2.016,3.776c-0.743-0.027-1.442-0.23-2.051-0.566c0,0.018,0,0.036,0,0.062c0,2.193,1.564,4.032,3.634,4.448
			c-0.38,0.105-0.778,0.159-1.194,0.159c-0.292,0-0.575-0.026-0.849-0.079c0.575,1.804,2.255,3.112,4.236,3.148
			c-1.556,1.22-3.511,1.945-5.633,1.945c-0.363,0-0.725-0.018-1.079-0.062C17.749,95.915,20.136,96.667,22.692,96.667"/>
	</g>
	<g id="icon_1_" transform="translate(-1.9444444444444287 -1.9444444444444287) scale(3.89 3.89)">
		<path fill="#3C5A99" d="M0.885,60.269h9.34v-9.34h-9.34V60.269L0.885,60.269z"/>
		<path fill="#3C5A99" d="M10.139,60.269h9.34v-9.34H9.968v9.34H10.139z"/>
		<path fill="#3C5A99" d="M19.219,60.397h9.34v-9.34h-9.34V60.397L19.219,60.397z"/>
		<path fill="#3C5A99" d="M21.984,60.397h9.34v-9.34h-9.34V60.397L21.984,60.397z"/>
		<path fill="#FFFFFF" d="M8.023,58.555v-2.693h0.904l0.136-1.05H8.023v-0.67c0-0.304,0.084-0.511,0.52-0.511h0.556v-0.939
			c-0.096-0.013-0.426-0.041-0.81-0.041c-0.801,0-1.35,0.489-1.35,1.388v0.774H6.033v1.049h0.82l0.086,2.693H8.023L8.023,58.555z"/>
	</g>
	
		<text transform="matrix(1 0 0 1 46.3906 92.5265)" fill="#FFFFFF" stroke="#FFFFFF" stroke-width="0.3364" font-family="'ARSMaquettePro-Regular'" font-size="10.4286">Twitter</text>
	<g id="Logo__x2014__FIXED_1_">
		<path fill="#FFFFFF" d="M-24.808,194.666c8.339,0,12.902-6.915,12.902-12.901c0-0.195,0-0.39-0.009-0.585
			c0.884-0.636,1.653-1.44,2.264-2.352c-0.814,0.363-1.689,0.602-2.608,0.717c0.937-0.558,1.654-1.45,1.998-2.512
			c-0.875,0.521-1.848,0.893-2.883,1.097c-0.832-0.885-2.007-1.433-3.307-1.433c-2.503,0-4.537,2.033-4.537,4.536
			c0,0.354,0.044,0.698,0.116,1.034c-3.767-0.185-7.11-1.998-9.347-4.739c-0.389,0.672-0.61,1.45-0.61,2.282
			c0,1.574,0.804,2.962,2.016,3.775c-0.743-0.027-1.442-0.23-2.051-0.566c0,0.019,0,0.036,0,0.062c0,2.193,1.564,4.032,3.634,4.448
			c-0.38,0.105-0.778,0.159-1.194,0.159c-0.292,0-0.575-0.027-0.849-0.08c0.575,1.805,2.255,3.113,4.236,3.148
			c-1.556,1.221-3.511,1.945-5.633,1.945c-0.363,0-0.725-0.018-1.079-0.062C-29.752,193.914-27.364,194.666-24.808,194.666"/>
	</g>
</g>
<g id="Layer_4">
</g>
<g id="Layer_3">
</g>
<g id="Layer_2">
</g>
</svg>
